# xmcd CD database file
#
# Track frame offsets:
#	150
#	17513
#	47650
#	90543
#	144810
#	167538
#	188383
#	210415
#	265748
#	292703
#
# Disc length: 4275 seconds
#
# Revision: 0
# Processed by: cddbd v1.5.1PL2 Copyright (c) Steve Scherf et al.
# Submitted via: CDex 1.51
#
DISCID=6e10b10a
DTITLE=Various Artist - SWING JOURNAL GOLD DISC BEST VOL.2 Disc2
DYEAR=2003
DGENRE=Jazz
TTITLE0=APRIL IN PARIS（Harburg - Duke／ ）THELONIOUS MONK
TTITLE1=DON'T EXPLAIN（Holiday - Herzog ）／ABBEY LINCOLN
TTITLE2=WILLOW WEEP FOR ME（Ann Ronell ）／THE RED GARLAND TRIO
TTITLE3=GOOD BAIT（Dameron - Basie）／JOHN COLTRANE
TTITLE4=SWEET LORRAINE（Burwell - Parish）／BENNY CARTER
TTITLE5=LOTUS BLOSSOM（Kenny Dorham）／KENNY DORHAM
TTITLE6=SOMEDAY MY PRINCE WILL COME（Morey - Churchill）／BILL EVANS, piano
TTITLE7=BEE VAMP（Booker Little）／ERIC ALLAN DOLPHY
TTITLE8=CIRCLE WALTZ（Don Friedman）／DON FRIEDMAN
TTITLE9=LITTLE GIRL BLUE（Rodgers - Hart） ／PHINEAS NEWBORN,JR.
EXTD=YEAR: 2003.07.23
EXTT0=
EXTT1=
EXTT2=
EXTT3=
EXTT4=
EXTT5=
EXTT6=
EXTT7=
EXTT8=
EXTT9=
PLAYORDER=
